<svg width="14" height="14" viewBox="0 0 14 14" fill="none" xmlns="http://www.w3.org/2000/svg">
<path fill-rule="evenodd" clip-rule="evenodd" d="M6.69669 13.8573C6.25267 13.8573 5.82684 13.6748 5.51287 13.35C5.1989 13.0252 5.02251 12.5846 5.02251 12.1252V8.66084H1.67417C1.23015 8.66084 0.804321 8.47834 0.490353 8.15349C0.176385 7.82865 0 7.38807 0 6.92867C0 6.46927 0.176385 6.02869 0.490353 5.70384C0.804321 5.379 1.23015 5.1965 1.67417 5.1965H5.02251V1.73217C5.02251 1.27277 5.1989 0.832184 5.51287 0.50734C5.82684 0.182495 6.25267 0 6.69669 0C7.1407 0 7.56654 0.182495 7.8805 0.50734C8.19447 0.832184 8.37086 1.27277 8.37086 1.73217V5.1965H11.7192C12.1632 5.1965 12.5891 5.379 12.903 5.70384C13.217 6.02869 13.3934 6.46927 13.3934 6.92867C13.3934 7.38807 13.217 7.82865 12.903 8.15349C12.5891 8.47834 12.1632 8.66084 11.7192 8.66084H8.37086V12.1252C8.37086 12.5846 8.19447 13.0252 7.8805 13.35C7.56654 13.6748 7.1407 13.8573 6.69669 13.8573Z" fill="#6E11B9"/>
</svg>
