<svg width="20" height="20" viewBox="0 0 20 20" fill="none" xmlns="http://www.w3.org/2000/svg">
<path d="M15.091 9.25802C14.2417 8.47782 13.3826 8.07996 12.5475 7.69112C11.6548 7.27497 10.8125 6.882 9.93075 6.04349C9.33841 5.48647 8.85202 4.81845 8.47069 4.0625L8.19962 3.52585L3.10071 8.77904L3.23478 9.05073C3.586 9.75894 4.02682 10.3988 4.54607 10.953C4.6286 11.0409 4.71108 11.1251 4.79412 11.2057C5.7207 12.1051 6.66896 12.5477 7.58734 12.978C8.55607 13.4309 9.47015 13.8577 10.3608 14.8076C10.8309 15.3132 11.2242 15.885 11.5284 16.5047L11.7978 17.0481L16.8988 11.7927L16.768 11.5225C16.4297 10.824 15.9867 10.1813 15.4543 9.61661C15.3375 9.49276 15.2164 9.37315 15.091 9.25802ZM14.5148 9.88489C14.6223 9.9833 14.7294 10.0872 14.8362 10.1992C14.9464 10.3158 15.0513 10.4379 15.1529 10.5628C15.0124 10.8011 14.9697 11.0847 15.034 11.3538C15.0982 11.623 15.2642 11.8568 15.4972 12.0061L12.7803 14.8052C12.6994 14.6869 12.5956 14.5861 12.4751 14.5087C12.3545 14.4313 12.2196 14.3789 12.0784 14.3546C11.9372 14.3304 11.7925 14.3348 11.6531 14.3675C11.5136 14.4003 11.3821 14.4607 11.2664 14.5453C11.1747 14.4359 11.08 14.3292 10.9822 14.2252C9.9768 13.1597 8.94604 12.6723 7.94558 12.2053C6.97534 11.7521 6.05666 11.3221 5.16691 10.3725C5.05664 10.2536 4.95068 10.1309 4.84925 10.0044C4.98884 9.76617 5.03086 9.48318 4.96652 9.21468C4.90219 8.94617 4.73648 8.71295 4.50409 8.56385L7.221 5.76473C7.30233 5.88372 7.40689 5.98503 7.52839 6.06256C7.6499 6.14009 7.78583 6.19223 7.92801 6.21585C8.07019 6.23947 8.21568 6.23407 8.35572 6.2C8.49577 6.16592 8.62747 6.10386 8.7429 6.01755C8.93236 6.24385 9.13078 6.46093 9.3441 6.66142C10.327 7.59632 11.2737 8.03683 12.1896 8.46355C12.9965 8.83886 13.7629 9.19932 14.5148 9.88489ZM11.1946 9.05484C10.7651 9.49737 10.4251 9.50244 9.98257 9.0729L9.38558 9.68796C9.62422 9.91959 9.87257 10.0705 10.1236 10.1583L8.80665 11.5151L9.4217 12.1121L11.8097 9.65183L11.1946 9.05484ZM13.2026 11.6011C13.0802 11.4823 12.9157 11.4171 12.7453 11.4196C12.5748 11.4221 12.4123 11.4923 12.2935 11.6146C12.1748 11.737 12.1095 11.9015 12.1121 12.072C12.1146 12.2424 12.1848 12.4049 12.3071 12.5237C12.4294 12.6424 12.5939 12.7077 12.7644 12.7052C12.9349 12.7026 13.0974 12.6325 13.2161 12.5101C13.3349 12.3878 13.4002 12.2233 13.3976 12.0528C13.3951 11.8823 13.3249 11.7198 13.2026 11.6011ZM7.69417 8.04623C7.57183 7.92748 7.40732 7.8622 7.23685 7.86474C7.06637 7.86728 6.90388 7.93744 6.78513 8.05978C6.66638 8.18212 6.6011 8.34663 6.60364 8.5171C6.60618 8.68758 6.67634 8.85007 6.79868 8.96882C6.92102 9.08757 7.08553 9.15285 7.25601 9.15031C7.42648 9.14777 7.58897 9.07761 7.70772 8.95527C7.82647 8.83293 7.89175 8.66842 7.88921 8.49794C7.88667 8.32747 7.81651 8.16498 7.69417 8.04623Z" fill="#DE0F0F"/>
<path d="M10 20C8.61667 20 7.31667 19.7373 6.1 19.212C4.88333 18.6873 3.825 17.975 2.925 17.075C2.025 16.175 1.31267 15.1167 0.788 13.9C0.262667 12.6833 0 11.3833 0 10C0 8.61667 0.262667 7.31667 0.788 6.1C1.31267 4.88333 2.025 3.825 2.925 2.925C3.825 2.025 4.88333 1.31233 6.1 0.787C7.31667 0.262333 8.61667 0 10 0C11.3833 0 12.6833 0.262333 13.9 0.787C15.1167 1.31233 16.175 2.025 17.075 2.925C17.975 3.825 18.6873 4.88333 19.212 6.1C19.7373 7.31667 20 8.61667 20 10C20 11.3833 19.7373 12.6833 19.212 13.9C18.6873 15.1167 17.975 16.175 17.075 17.075C16.175 17.975 15.1167 18.6873 13.9 19.212C12.6833 19.7373 11.3833 20 10 20ZM10 18C12.2333 18 14.125 17.225 15.675 15.675C17.225 14.125 18 12.2333 18 10C18 9.1 17.854 8.23333 17.562 7.4C17.2707 6.56667 16.85 5.8 16.3 5.1L5.1 16.3C5.8 16.85 6.56667 17.2707 7.4 17.562C8.23333 17.854 9.1 18 10 18ZM3.7 14.9L14.9 3.7C14.2 3.15 13.4333 2.72933 12.6 2.438C11.7667 2.146 10.9 2 10 2C7.76667 2 5.875 2.775 4.325 4.325C2.775 5.875 2 7.76667 2 10C2 10.9 2.146 11.7667 2.438 12.6C2.72933 13.4333 3.15 14.2 3.7 14.9Z" fill="#DE0F0F"/>
</svg>
