<svg width="24" height="21" viewBox="0 0 24 21" fill="none" xmlns="http://www.w3.org/2000/svg">
<path d="M11.5993 5.30205H11.5996C12.6703 5.30205 13.5099 6.22656 13.4021 7.29446L11.5993 5.30205ZM11.5993 5.30205C11.3462 5.3022 11.0959 5.35536 10.8646 5.4581C10.6333 5.56085 10.4261 5.71091 10.2563 5.89862C10.0865 6.08632 9.95794 6.30751 9.87884 6.54793C9.79974 6.78836 9.77188 7.04268 9.79705 7.29453L10.3042 12.3765C10.3328 12.6995 10.4811 13.0003 10.72 13.2197C10.9599 13.44 11.2738 13.5623 11.5996 13.5623C11.9253 13.5623 12.2392 13.44 12.4791 13.2197C12.7181 13.0003 12.8663 12.6995 12.8949 12.3765L13.402 7.2952L11.5993 5.30205ZM12.5898 1.07168L12.5898 1.0717L12.5924 1.07607L22.5336 17.9932L22.5339 17.9938C23.0103 18.8019 22.4288 19.8021 21.5437 19.8021H1.65982C0.775531 19.8021 0.193797 18.8037 0.669941 17.9931L10.6125 1.0761L10.6126 1.07611L10.6151 1.07168C10.7148 0.897952 10.8586 0.75361 11.032 0.653233C11.2054 0.552857 11.4021 0.5 11.6025 0.5C11.8028 0.5 11.9996 0.552857 12.1729 0.653233C12.3463 0.75361 12.4901 0.897952 12.5898 1.07168ZM12.9813 14.5732C12.6156 14.2075 12.1196 14.0021 11.6025 14.0021C11.0853 14.0021 10.5893 14.2075 10.2236 14.5732C9.85791 14.9389 9.65247 15.4349 9.65247 15.9521C9.65247 16.4692 9.85791 16.9652 10.2236 17.3309C10.5893 17.6966 11.0853 17.9021 11.6025 17.9021C12.1196 17.9021 12.6156 17.6966 12.9813 17.3309C13.347 16.9652 13.5525 16.4692 13.5525 15.9521C13.5525 15.4349 13.347 14.9389 12.9813 14.5732Z" fill="#FDE404" stroke="#2F2F2F"/>
</svg>
