<svg width="35" height="35" viewBox="0 0 35 35" fill="none" xmlns="http://www.w3.org/2000/svg">
<circle cx="17.5" cy="17.5" r="17.0522" stroke="#FD4F04" stroke-width="0.895599"/>
<rect x="28.1218" y="17.6612" width="4.51382" height="1.00307" rx="0.501535" fill="#FD4F04"/>
<rect x="2.40022" y="17.6612" width="4.51382" height="1.00307" rx="0.501535" fill="#FD4F04"/>
<rect width="4.51382" height="1.00307" rx="0.501535" transform="matrix(0 -1 -1 0 17.9837 6.30499)" fill="#FD4F04"/>
<path d="M23.4826 14.4908L17.6612 19.9181C17.5358 20.0256 17.4283 20.0256 17.3208 19.9181L8.66935 11.804C8.63353 11.7682 8.57979 11.7659 8.54397 11.804C7.68419 12.7175 7.3976 13.0937 6.43036 12.6459C6.39166 12.6279 6.37661 12.5921 6.43036 12.5384L10.1381 8.83061C10.174 8.79478 10.2456 8.77687 10.2814 8.83061C10.6934 9.63665 10.4247 9.94115 9.42166 10.9442L17.4283 18.4314C17.482 18.4852 17.5 18.4852 17.5537 18.4314L22.5332 13.5056C22.2108 11.4637 24.0737 9.40379 26.1335 9.58291C26.7784 9.63898 27.2455 10.1382 27.3515 10.6397C27.7456 12.5026 25.5962 14.7416 23.4826 14.4908Z" fill="#FD4F04" stroke="#FD4F04" stroke-width="0.0358239"/>
<path d="M9.02767 6.14381C8.81273 5.62436 8.36493 5.94678 8.0246 6.39458C7.98877 6.44172 7.9801 6.49099 8.0246 6.51996C8.63936 6.92021 8.84227 7.18972 8.99185 7.73798C9.00976 7.84545 8.92508 7.88127 8.84855 7.79171C8.4884 7.37026 8.24923 7.15846 7.70218 6.86029C7.65809 6.83626 7.61262 6.82447 7.55889 6.86029L7.05735 7.34391C7.02153 7.37974 7.05735 7.41124 7.09318 7.43347C7.61262 7.75589 7.81246 8.02298 8.04251 8.47237C8.0847 8.55479 7.95295 8.57181 7.89921 8.5261C7.50662 8.19219 7.25281 8.03819 6.75285 7.80963C6.69911 7.78506 6.64538 7.7738 6.60955 7.80963L6.28714 8.13204C6.2334 8.18578 6.2334 8.22677 6.26922 8.27534C6.57396 8.68844 6.78112 8.89398 7.20065 9.22467C7.2597 9.27122 7.19115 9.33928 7.11109 9.31423C6.63863 9.16641 6.3946 8.99717 5.98263 8.59775C5.94681 8.56302 5.89307 8.54402 5.83934 8.59775L5.46319 8.93808C5.40945 8.99182 5.40945 9.04555 5.44527 9.09929C5.73815 9.52706 5.93502 9.7502 6.34087 10.1203C6.3998 10.174 6.43043 10.2636 6.30505 10.2457C5.73186 10.1288 5.45571 9.97977 5.01539 9.565C4.96814 9.52524 4.94374 9.51126 4.89 9.54709L4.56759 9.85159C4.51385 9.92324 4.5346 9.9643 4.56759 10.0128C4.84274 10.4173 5.04188 10.628 5.46319 10.98C5.51692 11.025 5.4811 11.1054 5.39154 11.0875C4.87907 10.9265 4.61031 10.7798 4.15561 10.4248C4.10188 10.3828 4.04814 10.371 3.9944 10.4248L3.60034 10.8188C3.4033 11.0338 3.45703 11.2129 3.70781 11.3383L5.91099 12.3951C6.01845 12.4488 6.12593 12.4488 6.19758 12.3772L9.99492 8.56193C10.0666 8.49028 10.0666 8.45446 10.0487 8.38281L9.02767 6.14381Z" fill="#FD4F04" stroke="#FD4F04" stroke-width="0.0358239"/>
<rect x="17.0163" y="29.0174" width="0.967247" height="4.47799" rx="0.322416" fill="#FD4F04"/>
<path d="M13.8281 28.5875L13.8639 31.8296L15.5118 28.9637C15.6372 28.7487 16.4791 29.1786 16.3179 29.4473L14.1863 32.9222C14.0251 33.2267 13.04 32.9222 13.04 32.6714L12.8788 28.5875C12.8788 28.2472 13.8281 28.2293 13.8281 28.5875Z" fill="#FD4F04" stroke="#FD4F04" stroke-width="0.0358239"/>
<path d="M21.1387 28.5987L21.1029 31.8408L19.455 28.9749C19.3296 28.7599 18.4877 29.1898 18.6489 29.4585L20.7805 32.9334C20.9417 33.2379 21.9268 32.9334 21.9268 32.6827L22.088 28.5987C22.088 28.2584 21.1387 28.2405 21.1387 28.5987Z" fill="#FD4F04" stroke="#FD4F04" stroke-width="0.0358239"/>
<path d="M8.04417 24.3003L6.18997 26.96L9.19616 25.5845C9.42308 25.4824 9.8586 26.3214 9.5713 26.4464L5.81769 28.0367C5.50958 28.1909 4.88458 27.3707 5.03026 27.1666L7.27144 23.7488C7.46914 23.4718 8.25227 24.0087 8.04417 24.3003Z" fill="#FD4F04" stroke="#FD4F04" stroke-width="0.0358239"/>
<path fill-rule="evenodd" clip-rule="evenodd" d="M11.8399 27.7098C11.9295 27.4053 11.0339 26.868 10.8368 27.0471L7.70223 29.7518C7.50519 29.9667 8.1321 30.6295 8.34706 30.4503L8.92025 29.913C8.97395 29.8772 9.00977 29.8951 9.04561 29.913L9.04563 29.913L10.0129 30.5399C10.0666 30.5757 10.0666 30.6116 10.0487 30.6653L9.81585 31.3639C9.72627 31.7221 10.6577 31.8833 10.7294 31.6146L11.8399 27.7098ZM10.2993 29.8055L9.56491 29.3398L10.7829 28.2293L10.2993 29.8055Z" fill="#FD4F04"/>
<path d="M10.8368 27.0471L10.8485 27.0606L10.8489 27.0603L10.8368 27.0471ZM11.8399 27.7098L11.8227 27.7048L11.8227 27.7049L11.8399 27.7098ZM7.70223 29.7518L7.69045 29.7381L7.68903 29.7397L7.70223 29.7518ZM8.34706 30.4503L8.35855 30.4641L8.35932 30.4634L8.34706 30.4503ZM8.92025 29.913L8.91017 29.8979L8.908 29.8999L8.92025 29.913ZM9.04561 29.913L9.0376 29.929L9.03769 29.929L9.04561 29.913ZM9.04563 29.913L9.05544 29.8978L9.05355 29.8969L9.04563 29.913ZM10.0129 30.5399L10.0228 30.525L10.0226 30.5249L10.0129 30.5399ZM10.0487 30.6653L10.0657 30.671L10.0657 30.6709L10.0487 30.6653ZM9.81585 31.3639L9.7988 31.3582L9.79847 31.3595L9.81585 31.3639ZM10.7294 31.6146L10.7121 31.6097L10.7121 31.61L10.7294 31.6146ZM9.56491 29.3398L9.55285 29.3266L9.53551 29.3424L9.55532 29.355L9.56491 29.3398ZM10.2993 29.8055L10.2897 29.8207L10.3095 29.8332L10.3164 29.8108L10.2993 29.8055ZM10.7829 28.2293L10.8001 28.2345L10.8193 28.1719L10.7709 28.216L10.7829 28.2293ZM10.8489 27.0603C10.8693 27.0418 10.9001 27.0313 10.9409 27.0295C10.9816 27.0278 11.0305 27.0348 11.0846 27.0495C11.1927 27.0789 11.3187 27.1379 11.4363 27.2122C11.5539 27.2866 11.662 27.3755 11.7348 27.464C11.8086 27.5536 11.8424 27.6378 11.8227 27.7048L11.8571 27.7149C11.8822 27.6296 11.8376 27.5325 11.7625 27.4412C11.6865 27.3489 11.5751 27.2576 11.4554 27.1819C11.3357 27.1063 11.2064 27.0455 11.094 27.015C11.0378 26.9997 10.985 26.9918 10.9394 26.9937C10.8939 26.9957 10.8536 27.0076 10.8248 27.0338L10.8489 27.0603ZM7.71394 29.7653L10.8485 27.0606L10.8251 27.0335L7.69053 29.7382L7.71394 29.7653ZM8.3356 30.4366C8.29031 30.4743 8.21992 30.4704 8.13552 30.4308C8.05226 30.3917 7.96169 30.3206 7.88323 30.2366C7.80478 30.1526 7.7397 30.0571 7.70635 29.9704C7.67263 29.8826 7.67331 29.8098 7.71544 29.7639L7.68903 29.7397C7.63263 29.8012 7.63778 29.8918 7.67291 29.9832C7.7084 30.0756 7.77654 30.1749 7.85705 30.2611C7.93757 30.3472 8.03172 30.4217 8.12031 30.4632C8.20775 30.5042 8.29633 30.5159 8.35853 30.4641L8.3356 30.4366ZM8.908 29.8999L8.33481 30.4373L8.35932 30.4634L8.9325 29.9261L8.908 29.8999ZM9.05361 29.8969C9.03619 29.8882 9.01545 29.8777 8.9916 29.875C8.96669 29.8723 8.94016 29.8782 8.91031 29.8981L8.93019 29.9279C8.95404 29.912 8.97226 29.9089 8.98765 29.9106C9.0041 29.9125 9.01919 29.9198 9.0376 29.929L9.05361 29.8969ZM9.05355 29.8969L9.05352 29.8969L9.03769 29.929L9.03771 29.9291L9.05355 29.8969ZM10.0226 30.5249L9.05537 29.898L9.03589 29.928L10.0031 30.5549L10.0226 30.5249ZM10.0657 30.6709C10.0748 30.6436 10.0807 30.6172 10.0751 30.592C10.0693 30.5658 10.052 30.5445 10.0228 30.525L10.0029 30.5548C10.0275 30.5712 10.037 30.5857 10.0402 30.5998C10.0435 30.6149 10.0405 30.6333 10.0317 30.6596L10.0657 30.6709ZM9.83284 31.3695L10.0657 30.671L10.0317 30.6596L9.79885 31.3582L9.83284 31.3695ZM10.7121 31.61C10.697 31.6664 10.6353 31.7047 10.5407 31.7215C10.4475 31.7381 10.3297 31.7322 10.216 31.7069C10.1023 31.6815 9.99494 31.637 9.92197 31.578C9.84926 31.5193 9.81313 31.4485 9.83322 31.3682L9.79847 31.3595C9.77377 31.4583 9.82048 31.5421 9.89945 31.6059C9.97817 31.6695 10.0913 31.7157 10.2082 31.7418C10.3252 31.7679 10.448 31.7744 10.5469 31.7568C10.6443 31.7395 10.7259 31.6972 10.7467 31.6192L10.7121 31.61ZM11.8227 27.7049L10.7121 31.6097L10.7466 31.6195L11.8571 27.7147L11.8227 27.7049ZM9.55532 29.355L10.2897 29.8207L10.3089 29.7904L9.57451 29.3247L9.55532 29.355ZM10.7709 28.216L9.55285 29.3266L9.57698 29.3531L10.795 28.2425L10.7709 28.216ZM10.3164 29.8108L10.8001 28.2345L10.7658 28.224L10.2822 29.8003L10.3164 29.8108Z" fill="#FD4F04"/>
<path d="M22.6766 28.1934L24.8082 31.6325C24.8977 31.7758 25.041 31.74 25.2201 31.6325L27.2084 30.3429C27.4054 30.1996 27.0292 29.5547 26.7606 29.698L25.2739 30.5936L24.7186 29.7159L25.6321 29.1428C25.847 28.9995 25.453 28.4263 25.2201 28.5517L24.3604 29.0532L23.823 28.2292L25.2739 27.2978C25.5425 27.1008 25.0768 26.4739 24.844 26.5993L22.7304 27.9247C22.6229 27.9964 22.6408 28.1218 22.6766 28.1934Z" fill="#FD4F04" stroke="#FD4F04" stroke-width="0.0358239"/>
<path d="M23.214 25.9724H24.0558C24.3245 25.9724 24.3245 26.5097 24.1454 26.5097H23.4827C23.411 26.5097 23.3751 26.5276 23.3394 26.5814L22.999 27.1725C22.9094 27.3337 22.4616 27.0471 22.6408 26.7784L22.999 26.1336C23.0528 26.044 23.1065 25.9724 23.214 25.9724Z" fill="#FD4F04" stroke="#FD4F04" stroke-width="0.0358239"/>
</svg>
