<?xml version="1.0" encoding="UTF-8"?>
<svg xmlns="http://www.w3.org/2000/svg" xmlns:xlink="http://www.w3.org/1999/xlink" viewBox="0 0 50 50" width="50px" height="50px">
<g id="surface51346140">
<path style=" stroke:none;fill-rule:nonzero;fill:rgb(56.862748%,56.862748%,56.862748%);fill-opacity:1;" d="M 25 2 C 24.640625 1.996094 24.304688 2.183594 24.121094 2.496094 C 23.941406 2.808594 23.941406 3.191406 24.121094 3.503906 C 24.304688 3.816406 24.640625 4.003906 25 4 C 36.609375 4 46 13.390625 46 25 C 46 36.609375 36.609375 46 25 46 C 13.390625 46 4 36.609375 4 25 C 4 18.308594 7.128906 12.363281 12 8.519531 L 12 15 C 11.996094 15.359375 12.183594 15.695312 12.496094 15.878906 C 12.808594 16.058594 13.191406 16.058594 13.503906 15.878906 C 13.816406 15.695312 14.003906 15.359375 14 15 L 14 5 L 4 5 C 3.640625 4.996094 3.304688 5.183594 3.121094 5.496094 C 2.941406 5.808594 2.941406 6.191406 3.121094 6.503906 C 3.304688 6.816406 3.640625 7.003906 4 7 L 10.699219 7 C 5.402344 11.214844 2 17.710938 2 25 C 2 37.691406 12.308594 48 25 48 C 37.691406 48 48 37.691406 48 25 C 48 12.308594 37.691406 2 25 2 Z M 25 2 "/>
</g>
</svg>
