<svg width="19" height="16" viewBox="0 0 15 14" fill="none" xmlns="http://www.w3.org/2000/svg">
<path d="M13.287 3.44214C11.273 0.337178 7.16102 -0.585918 3.97214 1.34419C0.867181 3.2743 -0.139833 7.47019 1.87419 10.5751L2.04203 10.8269L1.37069 13.3444L3.88822 12.6731L4.13998 12.8409C5.23091 13.4284 6.40576 13.764 7.5806 13.764C8.83937 13.764 10.0981 13.4284 11.1891 12.757C14.294 10.743 15.2171 6.63101 13.287 3.44214ZM11.5247 9.90381C11.1891 10.4073 10.7695 10.743 10.1821 10.8269C9.84639 10.8269 9.4268 10.9947 7.74844 10.3234C6.32184 9.65205 5.14699 8.56112 4.30781 7.30236C3.8043 6.71493 3.55255 5.95967 3.46863 5.20441C3.46863 4.53307 3.72039 3.94564 4.13998 3.52605C4.30781 3.35822 4.47565 3.2743 4.64348 3.2743H5.06307C5.23091 3.2743 5.39874 3.2743 5.48266 3.60997C5.6505 4.02956 6.07008 5.03657 6.07008 5.12049C6.154 5.20441 6.154 5.37225 6.07008 5.45616C6.154 5.624 6.07008 5.79183 5.98617 5.87575C5.90225 5.95967 5.81833 6.12751 5.73441 6.21142C5.56658 6.29534 5.48266 6.46318 5.56658 6.63101C5.90225 7.13452 6.32184 7.63803 6.74143 8.05761C7.24493 8.4772 7.74844 8.81287 8.33586 9.06463C8.5037 9.14855 8.67154 9.14855 8.75545 8.98071C8.83937 8.81288 9.25896 8.39329 9.4268 8.22545C9.59463 8.05761 9.67855 8.05762 9.84639 8.14153L11.1891 8.81288C11.3569 8.89679 11.5247 8.98071 11.6087 9.06463C11.6926 9.31638 11.6926 9.65205 11.5247 9.90381Z" fill="#2F2F2F"/>
</svg>
