<svg width="16" height="12" viewBox="0 0 16 12" fill="none" xmlns="http://www.w3.org/2000/svg">
<path d="M5.01463 8.6414L13.2712 0.384839C13.5278 0.128279 13.8543 0 14.2508 0C14.6473 0 14.9738 0.128279 15.2304 0.384839C15.4869 0.641399 15.6152 0.967929 15.6152 1.36443C15.6152 1.76093 15.4869 2.08746 15.2304 2.34402L5.99423 11.5802C5.71434 11.8601 5.38781 12 5.01463 12C4.64146 12 4.31493 11.8601 4.03504 11.5802L0.396558 7.94169C0.139998 7.68513 0.0117188 7.3586 0.0117188 6.9621C0.0117188 6.5656 0.139998 6.23907 0.396558 5.98251C0.653118 5.72595 0.979649 5.59767 1.37615 5.59767C1.77265 5.59767 2.09918 5.72595 2.35574 5.98251L5.01463 8.6414Z" fill="#1CDB92"/>
</svg>
