<svg width="16" height="22" viewBox="0 0 16 22" fill="none" xmlns="http://www.w3.org/2000/svg">
<path d="M12.9481 8.95L10.9981 7V13.587C10.9981 14.477 9.92107 14.924 9.29107 14.294L7.99607 13C7.49607 12.5 6.29507 12.2 5.49407 13C4.69407 13.8 4.99407 15 5.49407 15.5L9.09707 19.9C9.3786 20.244 9.73305 20.5211 10.1348 20.7114C10.5366 20.9016 10.9756 21.0002 11.4201 21H14.0001C14.2653 21 14.5196 20.8946 14.7072 20.7071C14.8947 20.5196 15.0001 20.2652 15.0001 20V13.9C14.9999 12.9806 14.8186 12.0702 14.4665 11.2209C14.1144 10.3715 13.5984 9.5999 12.9481 8.95Z" fill="white" stroke="#3BC219" stroke-linecap="round" stroke-linejoin="round"/>
<path d="M7 1H9C9.53043 1 10.0391 1.21071 10.4142 1.58579C10.7893 1.96086 11 2.46957 11 3V5M7 1C7 2.333 7.8 5 11 5L7 1ZM7 1H5H7ZM11 5V11V5ZM1 11V13C1 13.5304 1.21071 14.0391 1.58579 14.4142C1.96086 14.7893 2.46957 15 3 15H5C5 13.667 4.2 11 1 11ZM1 11V5V11ZM5 1H3C2.46957 1 1.96086 1.21071 1.58579 1.58579C1.21071 1.96086 1 2.46957 1 3V5M5 1C5 2.333 4.2 5 1 5L5 1Z" fill="white"/>
<path d="M7 1H9C9.53043 1 10.0391 1.21071 10.4142 1.58579C10.7893 1.96086 11 2.46957 11 3V5M7 1C7 2.333 7.8 5 11 5M7 1H5M11 5V11M5 1H3C2.46957 1 1.96086 1.21071 1.58579 1.58579C1.21071 1.96086 1 2.46957 1 3V5M5 1C5 2.333 4.2 5 1 5M1 11V13C1 13.5304 1.21071 14.0391 1.58579 14.4142C1.96086 14.7893 2.46957 15 3 15H5C5 13.667 4.2 11 1 11ZM1 11V5" stroke="#3BC219" stroke-linecap="round" stroke-linejoin="round"/>
<path d="M5 8C5 8.55228 5.44772 9 6 9C6.55228 9 7 8.55228 7 8C7 7.44772 6.55228 7 6 7C5.44772 7 5 7.44772 5 8Z" fill="white" stroke="#3BC219" stroke-linecap="round" stroke-linejoin="round"/>
</svg>
